<?xml version="1.0" standalone="no"?><!DOCTYPE svg PUBLIC "-//W3C//DTD SVG 1.1//EN" "http://www.w3.org/Graphics/SVG/1.1/DTD/svg11.dtd"><svg t="1480766456293" class="icon" style="" viewBox="0 0 1024 1024" version="1.1" xmlns="http://www.w3.org/2000/svg" p-id="1182" xmlns:xlink="http://www.w3.org/1999/xlink" width="200" height="200"><defs><style type="text/css"></style></defs><path d="M60.53888 0l82.14528 921.62048 368.76288 102.37952 369.72544-102.52288 82.30912-921.47712-902.92224 0zM810.76224 862.8224l-297.22624 82.37056 0 0.47104-0.77824-0.22528-0.77824 0.22528 0-0.47104-297.22624-82.37056-70.2464-787.47648 736.50176 0-70.2464 787.47648zM650.752 530.20672l-13.06624 146.55488-126.21824 34.07872-125.87008-33.91488-8.04864-90.23488-113.50016 0 15.83104 177.52064 232.07936 64.18432 231.34208-64.18432 31.04768-347.01312-411.97568 0-10.30144-115.75296 432.5376 0 10.11712-113.02912-566.21056 0 30.49472 341.8112z" p-id="1183"></path></svg>