<?xml version="1.0" standalone="no"?><!DOCTYPE svg PUBLIC "-//W3C//DTD SVG 1.1//EN" "http://www.w3.org/Graphics/SVG/1.1/DTD/svg11.dtd"><svg t="1480767565551" class="icon" style="" viewBox="0 0 1567 1024" version="1.1" xmlns="http://www.w3.org/2000/svg" p-id="2215" xmlns:xlink="http://www.w3.org/1999/xlink" width="306.0546875" height="200"><defs><style type="text/css"></style></defs><path d="M563.2 184.42449L391.836735 279.510204V693.812245l69.485714 38.138775c37.616327 20.37551 81.502041 44.408163 96.653061 52.767347 14.628571 8.881633 27.167347 14.628571 27.167347 13.061225 0-1.567347-13.583673-10.44898-29.779592-19.853061-16.718367-9.404082-57.469388-32.914286-90.906122-52.767347L403.330612 689.632653l-2.089796-103.444898c-2.612245-156.212245 1.044898-294.138776 8.359184-289.959184 3.657143 2.089796 3.134694 0.522449-1.044898-4.70204-5.22449-6.791837-1.567347-10.44898 26.122449-25.077551 18.285714-9.404082 59.036735-31.869388 90.383673-49.632653 31.869388-17.240816 64.783673-35.004082 73.142858-39.183674 8.881633-4.179592 16.718367-9.404082 18.285714-10.971429 1.567347-1.567347 30.302041-17.763265 63.738775-35.52653l61.126531-32.391837 61.64898 32.391837c33.959184 17.763265 62.693878 33.959184 64.261224 35.52653 1.567347 1.567347 16.718367 9.926531 33.959184 18.808164 35.526531 17.763265 102.922449 55.902041 107.102041 60.081632 1.567347 1.567347 18.285714 10.971429 37.616326 20.375511l35.004082 17.240816 0.522449 202.710204v202.710204l-61.126531 36.04898c-57.469388 33.959184-77.322449 45.453061-153.077551 86.72653-15.673469 8.881633-47.542857 26.122449-70.008163 38.661225-22.987755 12.538776-46.497959 24.032653-52.244898 25.077551-7.314286 2.089796-30.82449-8.359184-68.440816-29.779592-56.42449-31.869388-92.473469-50.155102-85.681633-43.363265 2.089796 1.567347 37.093878 21.942857 77.844898 44.408163l74.187755 40.75102 24.032653-14.106122c13.583673-7.836735 91.95102-51.2 175.020408-96.653061l149.942857-82.546939V279.510204l-172.408163-95.608163c-95.085714-52.244898-175.542857-95.085714-179.2-94.563265-3.134694 0-83.069388 42.840816-177.110204 95.085714z" p-id="2216"></path><path d="M652.016327 335.934694L564.244898 384v205.322449l86.726531 47.542857c47.542857 26.122449 89.861224 47.542857 93.518367 47.542857 4.179592 0 8.881633-2.612245 10.971428-5.746939 2.089796-3.657143 0-4.702041-7.314285-2.612244-10.44898 3.657143-25.077551-3.657143-134.269388-67.395919-19.853061-11.493878-37.093878-24.555102-38.138775-28.212245-2.612245-13.061224-1.044898-189.64898 2.089795-194.35102 1.567347-2.612245 16.195918-12.016327 32.391837-20.37551 16.195918-8.881633 52.244898-28.734694 79.412245-43.885715l49.632653-28.212244 39.183674 21.420408c21.420408 11.493878 47.542857 25.6 57.469387 31.346938 9.926531 5.746939 29.257143 16.195918 42.318368 22.465307 13.583673 6.791837 25.6 15.673469 27.167347 19.330612 1.567347 3.657143 2.089796 50.155102 1.567347 102.922449l-0.522449 95.608163-67.918368 38.661225c-79.934694 45.97551-100.310204 61.64898-28.734694 22.987755 27.167347-15.15102 62.171429-33.436735 77.322449-41.27347l27.167347-13.583673V382.432653l-86.204081-47.542857c-47.020408-26.122449-86.204082-47.542857-87.24898-47.542857-1.044898 0-40.75102 21.942857-88.816326 48.587755z" p-id="2217"></path></svg>